<?xml version="1.0" standalone="no"?>
<!DOCTYPE svg PUBLIC "-//W3C//DTD SVG 20010904//EN"
 "http://www.w3.org/TR/2001/REC-SVG-20010904/DTD/svg10.dtd">
<svg version="1.0" xmlns="http://www.w3.org/2000/svg"
 width="450.000000pt" height="450.000000pt" viewBox="0 0 450.000000 450.000000"
 preserveAspectRatio="xMidYMid meet">
<metadata>
Created by potrace 1.14, written by Peter Selinger 2001-2017
</metadata>
<g transform="translate(0.000000,450.000000) scale(0.100000,-0.100000)"
fill="#000000" stroke="none">
<path d="M1975 4469 c-228 -29 -500 -111 -709 -213 -700 -343 -1166 -1013
-1247 -1795 -15 -142 -6 -440 16 -571 67 -396 242 -784 487 -1075 311 -372
718 -629 1174 -744 203 -51 326 -66 559 -65 237 0 346 13 563 70 982 255 1672
1147 1672 2163 0 1141 -842 2091 -1980 2231 -99 12 -435 11 -535 -1z m459
-1364 c147 -31 260 -107 314 -210 20 -39 26 -69 30 -136 8 -155 -54 -279 -188
-379 -38 -28 -70 -53 -70 -55 0 -2 20 -15 45 -30 78 -45 172 -141 205 -209 86
-174 52 -379 -85 -504 -65 -59 -153 -104 -251 -129 -95 -23 -323 -23 -418 0
-253 63 -381 233 -346 459 20 129 93 237 220 324 38 26 70 50 70 53 0 3 -20
18 -44 34 -69 44 -144 125 -178 195 -59 119 -49 280 24 395 58 91 171 164 298
191 87 19 287 19 374 1z m-1384 -685 l0 -690 180 0 180 0 0 -135 0 -135 -545
0 -545 0 0 135 0 135 205 0 205 0 0 521 c0 492 -1 521 -17 514 -10 -3 -88 -45
-173 -92 -85 -47 -158 -87 -161 -89 -4 -2 -29 52 -57 121 l-50 125 21 12 c12
7 130 70 262 140 l240 127 128 1 127 0 0 -690z m2745 664 c113 -12 226 -58
294 -119 21 -19 51 -63 67 -97 26 -57 29 -73 28 -168 0 -85 -4 -116 -23 -162
-27 -70 -98 -151 -159 -182 l-44 -22 61 -23 c120 -44 212 -158 229 -287 30
-218 -66 -404 -251 -489 -134 -61 -185 -68 -554 -73 l-333 -4 0 822 0 822 318
-6 c174 -4 340 -9 367 -12z"/>
<path d="M2149 2876 c-101 -22 -149 -73 -149 -159 0 -94 58 -163 195 -234 l74
-38 37 20 c97 52 170 147 181 232 11 99 -48 163 -167 182 -79 13 -99 13 -171
-3z"/>
<path d="M2132 2119 c-106 -70 -155 -146 -156 -244 -2 -110 66 -176 200 -194
128 -19 247 14 299 83 66 87 34 207 -78 292 -65 48 -166 104 -191 104 -7 0
-41 -18 -74 -41z"/>
<path d="M3410 2636 l0 -216 128 0 c158 0 217 15 271 69 69 69 82 204 25 278
-47 62 -97 77 -271 81 l-153 4 0 -216z"/>
<path d="M3410 1946 l0 -236 125 0 c68 0 148 5 177 11 139 30 210 112 209 242
0 85 -36 141 -116 182 -57 29 -62 30 -227 33 l-168 4 0 -236z"/>
</g>
</svg>
